<svg id="Layer_1" data-name="Layer 1" xmlns="http://www.w3.org/2000/svg" viewBox="0 0 1073 285"><defs><style>.cls-1{fill:#fff;}.cls-2{fill:#282568;}.cls-3{fill:#de2027;}.cls-4{fill:#2d286c;}</style></defs><title>LOGO_CIE</title><path class="cls-1" d="M220.1,157.44s5.57,38.78-26.2,57.41c-8.52-6.95-28.85-24.54-26.55-56.81C194.38,158.61,220.1,157.44,220.1,157.44Z"/><path class="cls-2" d="M136,84.73l19.78-.06s2.71-23.87-18.06-23.81L90.82,61s-24.31-1.07-24,21.32l.06,19.46s-2.22,24.31,22,24l47.9-.15s20.36,1.9,19.71-24.74c-10,0-15.53,0-20.44.12.07,3.27.91,9.86-8.3,9.61l-29.6.09s-10.45,2.15-10.49-10.92,0-11.94,0-11.94-1-11.76,11.23-11.8l27.63-.08S136,75.25,136,84.73Z"/><rect class="cls-2" x="182.3" y="61.67" width="21.42" height="63.1" transform="translate(-0.29 0.6) rotate(-0.18)"/><polygon class="cls-2" points="231.36 61.61 310.26 61.37 310.31 75.1 252.22 75.28 252.25 86.28 306.09 86.12 306.13 99.42 252.73 99.58 252.76 111.02 310.2 110.85 310.24 124.58 231.77 124.82 231.36 61.61"/><rect class="cls-3" x="54.06" y="133.66" width="276.83" height="11.34" transform="translate(-0.43 0.59) rotate(-0.18)"/><path class="cls-4" d="M220.82,179.78l-153.38.48c-1.27-4.1-2.16-7.85-2.16-7.85l155.52-.48Z"/><path class="cls-4" d="M216.3,196.63l-140.74.44c-1.85-2.86-4.36-7.83-4.36-7.83l145.07-.45Z"/><path class="cls-4" d="M205.4,213.67,90,214a102.32,102.32,0,0,1-7.64-7.83l123-.38Z"/><path class="cls-4" d="M164.9,230.63l-44.31.14A76.16,76.16,0,0,1,102.44,223l80.58-.25A80.16,80.16,0,0,1,164.9,230.63Z"/><rect class="cls-4" x="63.2" y="152.18" width="260.62" height="10.47" transform="translate(-0.48 0.6) rotate(-0.18)"/><path class="cls-3" d="M319.66,179.48l-150.32.46c-1.26-4.1-2.15-7.84-2.15-7.84l154.66-.48S320.66,176.49,319.66,179.48Z"/><path class="cls-3" d="M311.68,196.34l-134.21.41c-1.85-2.86-4.36-7.83-4.36-7.83L316,188.48S313.89,192.83,311.68,196.34Z"/><path class="cls-3" d="M297.3,213.39l-105.38.32a103.12,103.12,0,0,1-7.64-7.82L305,205.52A95.69,95.69,0,0,1,297.3,213.39Z"/><path class="cls-3" d="M266.81,230.32l-44.3.14a76.12,76.12,0,0,1-18.16-7.79l80.59-.25A80.63,80.63,0,0,1,266.81,230.32Z"/><path class="cls-2" d="M357.48,231.12V58.24h20.27v153h41v19.92Z"/><path class="cls-2" d="M500.35,199.26q0,34.68-34.22,34.76T431.9,199.26V90.09q0-34.66,34.23-34.66t34.22,34.66ZM480.08,90.09q0-14.66-13.87-14.74H466q-13.87,0-13.87,14.74V199.26q0,14.75,14,14.75t13.95-14.75Z"/><path class="cls-2" d="M588.11,199.26q0,34.68-34.23,34.76t-34.22-34.76V90.09q0-34.66,34.22-34.66t34.23,34.66v21.33H567.84V90.09q0-14.66-13.87-14.74h-.17q-13.87,0-13.87,14.74V199.26q0,14.75,14,14.75t14-14.75V154.68h-13v-20h33.26Z"/><path class="cls-2" d="M607.51,58.24h20.27V231.12H607.51ZM644.63,34.8l-23,14.75H609.26l19-17.47h16.33Z"/><path class="cls-2" d="M646.91,90.09q0-34.66,34.23-34.66t34.23,34.66v21.33H695.09V90.09q0-14.66-13.86-14.74h-.18q-13.86,0-13.86,14.74v16.24q0,13.24,25.27,31.33,22.9,16.41,22.91,39.05v22.55q0,34.76-34.14,34.76-34.32-.09-34.32-34.76V177.94h20.28v21.32q0,14.75,14,14.75,13.86,0,13.86-14.75V178.9q0-14.29-25.27-32.38-22.91-16.41-22.91-39.67Z"/><path class="cls-2" d="M797.86,58.24V78.16H773.81v153H753.54v-153H729.41V58.24Z"/><path class="cls-2" d="M814.09,58.24h20.28V231.12H814.09Z"/><path class="cls-2" d="M919.32,199.26q0,34.68-34.23,34.76t-34.22-34.76V90.09q0-34.66,34.22-34.66t34.23,34.66v21.33H899.05V90.09q0-14.66-13.87-14.74H885q-13.87,0-13.87,14.74V199.26q0,14.75,14,14.75t14-14.75V177.94h20.27Z"/><path class="cls-2" d="M1005.67,170.92l8.08,60.2H993.12l-5-37.82h-31l-5.09,37.82H931.61l7.89-59.85,17.82-113H988Zm-20.18,2.37-12.9-97.68-12.9,97.68Z"/></svg>