<?xml version="1.0" encoding="utf-8"?>
<!-- Generator: Adobe Illustrator 22.0.0, SVG Export Plug-In . SVG Version: 6.00 Build 0)  -->
<svg version="1.1" id="Layer_1" xmlns="http://www.w3.org/2000/svg" xmlns:xlink="http://www.w3.org/1999/xlink" x="0px" y="0px"
	 viewBox="0 0 873.6 241.3" style="enable-background:new 0 0 873.6 241.3;" xml:space="preserve">
<style type="text/css">
	.st0{fill:#FFFFFF;}
	.st1{fill:#282568;}
	.st2{fill:#DE2027;}
	.st3{fill:#2D286C;}
</style>
<path class="st0" d="M167.7,136c0,0,5.6,38.8-26.2,57.4c-8.5-7-28.8-24.5-26.5-56.8C142,137.1,167.7,136,167.7,136z"/>
<path class="st1" d="M83.6,63.2l19.8-0.1c0,0,2.7-23.9-18.1-23.8c-20.8,0.1-46.9,0.1-46.9,0.1s-24.3-1.1-24,21.3l0.1,19.5
	c0,0-2.2,24.3,22,24c27-0.1,47.9-0.1,47.9-0.1s20.4,1.9,19.7-24.7c-10,0-15.5,0-20.4,0.1c0.1,3.3,0.9,9.9-8.3,9.6
	c-9.5,0-29.6,0.1-29.6,0.1s-10.5,2.2-10.5-10.9c0-13.1,0-11.9,0-11.9s-1-11.8,11.2-11.8c12.3,0,27.6-0.1,27.6-0.1
	S83.6,53.8,83.6,63.2z"/>
<rect x="129.9" y="40.2" transform="matrix(1 -3.081957e-03 3.081957e-03 1 -0.2204 0.4338)" class="st1" width="21.4" height="63.1"/>
<polygon class="st1" points="179,40.1 257.9,39.9 257.9,53.6 199.8,53.8 199.9,64.8 253.7,64.6 253.8,77.9 200.4,78.1 200.4,89.5 
	257.8,89.4 257.9,103.1 179.4,103.3 "/>
<rect x="1.7" y="112.2" transform="matrix(1 -3.081957e-03 3.081957e-03 1 -0.3625 0.4323)" class="st2" width="276.8" height="11.3"/>
<path class="st3" d="M168.4,158.3c0,0-152.8,0.5-153.4,0.5c-1.3-4.1-2.2-7.8-2.2-7.8l155.5-0.5L168.4,158.3z"/>
<path class="st3" d="M163.9,175.1c0,0-140.4,0.4-140.7,0.4c-1.8-2.9-4.4-7.8-4.4-7.8l145.1-0.4L163.9,175.1z"/>
<path class="st3" d="M153,192.2c0,0-114.3,0.4-115.4,0.4c-3.7-3.3-7.6-7.8-7.6-7.8l123-0.4L153,192.2z"/>
<path class="st3" d="M112.5,209.1c-0.9,0-39.2,0.1-44.3,0.1c-10.4-2.9-18.2-7.8-18.2-7.8l80.6-0.2
	C130.6,201.2,122.9,206.1,112.5,209.1z"/>
<rect x="10.8" y="130.7" transform="matrix(1 -3.081957e-03 3.081957e-03 1 -0.4183 0.4356)" class="st3" width="260.6" height="10.5"/>
<path class="st2" d="M267.3,158c-1,0-149.8,0.5-150.3,0.5c-1.3-4.1-2.2-7.8-2.2-7.8l154.7-0.5C269.5,150.1,268.3,155,267.3,158z"/>
<path class="st2" d="M259.3,174.9c-1.3,0-133.9,0.4-134.2,0.4c-1.9-2.9-4.4-7.8-4.4-7.8l142.9-0.4
	C263.6,167,261.5,171.3,259.3,174.9z"/>
<path class="st2" d="M244.9,191.9c-2.2,0-104.3,0.3-105.4,0.3c-3.7-3.3-7.6-7.8-7.6-7.8l120.7-0.4
	C252.6,184,248.5,188.8,244.9,191.9z"/>
<path class="st2" d="M214.4,208.8c-0.9,0-39.2,0.1-44.3,0.1c-10.4-2.9-18.2-7.8-18.2-7.8l80.6-0.2
	C232.6,200.9,224.8,205.8,214.4,208.8z"/>
<g>
	<path class="st1" d="M375.3,186.1V55h15.4v116h31.1v15.1H375.3z"/>
	<path class="st1" d="M483.6,162c0,17.5-8.7,26.3-26,26.4c-17.3,0-26-8.8-26-26.4V79.2c0-17.5,8.7-26.3,26-26.3
		c17.3,0,26,8.8,26,26.3V162z M468.2,79.2c0-7.4-3.5-11.1-10.5-11.2h-0.1c-7,0-10.5,3.7-10.5,11.2V162c0,7.5,3.5,11.2,10.6,11.2
		c7.1,0,10.6-3.7,10.6-11.2V79.2z"/>
	<path class="st1" d="M550.1,162c0,17.5-8.7,26.3-26,26.4c-17.3,0-26-8.8-26-26.4V79.2c0-17.5,8.7-26.3,26-26.3
		c17.3,0,26,8.8,26,26.3v16.2h-15.4V79.2c0-7.4-3.5-11.1-10.5-11.2h-0.1c-7,0-10.5,3.7-10.5,11.2V162c0,7.5,3.5,11.2,10.6,11.2
		c7.1,0,10.6-3.7,10.6-11.2v-33.8h-9.8V113h25.2V162z"/>
	<path class="st1" d="M564.9,55h15.4v131.1h-15.4V55z M593,37.2l-17.4,11.2h-9.4l14.4-13.2H593V37.2z"/>
	<path class="st1" d="M594.7,79.2c0-17.5,8.7-26.3,26-26.3c17.3,0,26,8.8,26,26.3v16.2h-15.4V79.2c0-7.4-3.5-11.1-10.5-11.2h-0.1
		c-7,0-10.5,3.7-10.5,11.2v12.3c0,6.7,6.4,14.6,19.2,23.8c11.6,8.3,17.4,18.2,17.4,29.6V162c0,17.6-8.6,26.4-25.9,26.4
		c-17.3,0-26-8.8-26-26.4v-16.2h15.4V162c0,7.5,3.5,11.2,10.6,11.2c7,0,10.5-3.7,10.5-11.2v-15.4c0-7.2-6.4-15.4-19.2-24.6
		c-11.6-8.3-17.4-18.3-17.4-30.1V79.2z"/>
	<path class="st1" d="M709.2,55v15.1H691v116h-15.4v-116h-18.3V55H709.2z"/>
	<path class="st1" d="M721.5,55h15.4v131.1h-15.4V55z"/>
	<path class="st1" d="M801.3,162c0,17.5-8.7,26.3-26,26.4c-17.3,0-26-8.8-26-26.4V79.2c0-17.5,8.7-26.3,26-26.3
		c17.3,0,26,8.8,26,26.3v16.2h-15.4V79.2c0-7.4-3.5-11.1-10.5-11.2h-0.1c-7,0-10.5,3.7-10.5,11.2V162c0,7.5,3.5,11.2,10.6,11.2
		c7.1,0,10.6-3.7,10.6-11.2v-16.2h15.4V162z"/>
	<path class="st1" d="M866.8,140.5l6.1,45.7h-15.6l-3.8-28.7H830l-3.9,28.7h-15.5l6-45.4L830.1,55h23.2L866.8,140.5z M851.5,142.3
		l-9.8-74.1l-9.8,74.1H851.5z"/>
</g>
<rect x="325.4" y="0.3" class="st1" width="4.2" height="242.3"/>
</svg>
